<?xml version="1.0" encoding="utf-8"?>
<!-- Generator: Adobe Illustrator 16.0.0, SVG Export Plug-In . SVG Version: 6.00 Build 0)  -->
<!DOCTYPE svg PUBLIC "-//W3C//DTD SVG 1.1//EN" "http://www.w3.org/Graphics/SVG/1.1/DTD/svg11.dtd">
<svg version="1.1" id="Layer_1" xmlns="http://www.w3.org/2000/svg" xmlns:xlink="http://www.w3.org/1999/xlink" x="0px" y="0px"
	 width="1969.461px" height="739.286px" viewBox="0 0 1969.461 739.286" enable-background="new 0 0 1969.461 739.286"
	 xml:space="preserve">
<g>
	<path fill="#E6E7E8" d="M338.924,302.127h-11.816v152.476h11.816c8.181,0,12.271-4.921,12.271-14.771V316.897
		c0-4.693-1.023-8.329-3.068-10.906C346.083,303.417,343.015,302.127,338.924,302.127z"/>
	<path fill="#E6E7E8" d="M263.256,328.487c-1.971,16.514-3.977,32.608-6.022,48.288c-2.045,15.679-4.129,31.55-6.249,47.605h23.86
		c-1.97-16.056-3.941-31.927-5.908-47.605C266.967,361.095,265.074,345,263.256,328.487z"/>
	<path fill="#E6E7E8" d="M187.134,328.487c-1.971,16.514-3.977,32.608-6.022,48.288c-2.045,15.679-4.129,31.55-6.249,47.605h23.86
		c-1.97-16.056-3.941-31.927-5.908-47.605C190.844,361.095,188.952,345,187.134,328.487z"/>
	<path fill="#E6E7E8" d="M337.776,102.616c-147.475,0-267.027,119.553-267.027,267.027S190.302,636.67,337.776,636.67
		c147.475,0,267.027-119.553,267.027-267.027S485.251,102.616,337.776,102.616z M204.858,471.646l-4.09-31.358h-27.95l-4.09,31.358
		h-16.815l25.678-187.017h20.224l24.314,187.017H204.858z M280.981,471.646l-4.09-31.358h-27.95l-4.09,31.358h-16.815
		l25.678-187.017h20.224l24.314,187.017H280.981z M368.465,439.833c0,21.212-9.85,31.813-29.541,31.813h-29.086V284.629h29.086
		c9.999,0,17.419,2.841,22.269,8.521c4.847,5.682,7.272,13.521,7.272,23.52V439.833z M406.411,471.646h-17.043V315.307h-9.999
		v-16.816h5c2.421,0,4.165-0.643,5.227-1.932c1.058-1.285,1.59-3.443,1.59-6.476v-5.454h15.225V471.646z M446.404,471.646h-17.043
		V315.307h-9.999v-16.816h5c2.421,0,4.165-0.643,5.227-1.932c1.058-1.285,1.59-3.443,1.59-6.476v-5.454h15.225V471.646z
		 M517.755,300.764c-5,11.213-9.356,22.876-13.066,34.994c-3.714,12.121-6.743,25.109-9.089,38.971
		c-2.351,13.861-4.129,28.785-5.34,44.766c-1.214,15.985-1.818,33.369-1.818,52.151h-17.27c0-25.905,1.172-48.516,3.522-67.83
		c2.347-19.315,5.148-35.825,8.408-49.538c3.256-13.709,6.59-24.805,9.999-33.29c3.408-8.482,6.171-14.771,8.294-18.86h-42.721
		v-17.498h59.082V300.764z"/>
</g>
<g>
	<path fill="#E6E7E8" d="M676.437,328.486V141.47h29.086c10.907,0,18.974,2.691,24.201,8.067c5.227,5.379,7.84,13.975,7.84,25.792
		v30.677c0,11.816-2.578,20.377-7.726,25.678c-5.152,5.305-13.18,7.954-24.087,7.954h-12.043v88.85H676.437z M720.521,175.328
		c0-5.603-1.136-9.732-3.409-12.385c-2.272-2.648-6.135-3.977-11.589-3.977h-11.816v63.854h12.043c5,0,8.71-1.285,11.135-3.863
		c2.421-2.574,3.636-6.739,3.636-12.498V175.328z"/>
	<path fill="#E6E7E8" d="M749.605,328.486V141.47h49.538v17.497h-32.268v65.672h22.724v17.27h-22.724v69.534h33.404v17.043H749.605z
		"/>
	<path fill="#E6E7E8" d="M857.088,328.486c-1.971-14.692-4.016-28.973-6.135-42.834c-2.124-13.861-4.47-27.911-7.044-42.152
		c-0.76,0.152-1.442,0.227-2.045,0.227c-0.607,0-1.289,0-2.045,0h-9.317v84.76h-17.27V141.47h28.405
		c10.907,0,19.049,2.539,24.428,7.612c5.376,5.077,8.067,13.748,8.067,26.019v37.267c0,13.634-4.623,22.802-13.861,27.496
		c3.029,15.149,5.83,30.034,8.408,44.651c2.574,14.622,5,29.278,7.271,43.971H857.088z M856.634,177.373
		c0-6.817-0.987-11.589-2.954-14.316c-1.971-2.727-5.986-4.09-12.043-4.09h-11.135v69.08h11.362c5.301,0,9.09-1.25,11.362-3.75
		c2.272-2.5,3.409-6.398,3.409-11.703V177.373z"/>
	<path fill="#E6E7E8" d="M924.804,273.04c0-2.876-0.078-5.226-0.227-7.044c-0.153-1.818-0.455-3.408-0.909-4.772
		c-0.455-1.363-1.062-2.612-1.818-3.749c-0.76-1.136-1.669-2.386-2.727-3.749c-2.272-2.728-4.545-5.263-6.817-7.612
		c-2.272-2.348-4.623-4.694-7.044-7.045c-2.425-2.347-4.886-4.847-7.385-7.499c-2.5-2.649-5.113-5.642-7.839-8.976
		c-3.032-3.483-4.811-7.08-5.34-10.794c-0.533-3.71-0.795-8.216-0.795-13.521v-27.95c0-20.601,9.693-30.904,29.086-30.904
		c10.453,0,17.8,2.539,22.042,7.613c4.239,5.077,6.363,12.839,6.363,23.292v34.086h-16.134v-31.813
		c0-4.694-0.796-8.482-2.387-11.362c-1.59-2.876-4.736-4.317-9.43-4.317c-8.031,0-12.043,4.47-12.043,13.407v27.723
		c0,3.941,0.263,6.817,0.795,8.635c0.529,1.818,1.626,3.789,3.295,5.908c4.544,5.759,9.203,10.833,13.975,15.225
		c4.772,4.396,9.579,9.47,14.43,15.225c1.665,1.971,3.028,3.941,4.09,5.908c1.059,1.971,1.893,4.091,2.5,6.363
		c0.604,2.271,1.022,4.85,1.25,7.726c0.227,2.88,0.341,6.136,0.341,9.771v26.813c0,9.999-2.237,17.65-6.704,22.951
		c-4.47,5.305-11.93,7.953-22.383,7.953c-10.15,0-17.536-2.648-22.155-7.953c-4.623-5.301-6.931-12.952-6.931-22.951V259.86h16.588
		v37.268c0,4.85,0.87,8.787,2.613,11.816c1.74,3.032,4.886,4.544,9.43,4.544c4.392,0,7.534-1.171,9.431-3.521
		c1.893-2.348,2.84-5.795,2.84-10.34V273.04z"/>
	<path fill="#E6E7E8" d="M955.253,171.238c0-21.208,9.771-31.813,29.313-31.813c19.691,0,29.541,10.606,29.541,31.813v127.479
		c0,21.212-9.85,31.813-29.541,31.813c-19.542,0-29.313-10.602-29.313-31.813V171.238z M996.838,171.238
		c0-9.544-4.091-14.316-12.271-14.316c-8.031,0-12.043,4.772-12.043,14.316v127.479c0,9.85,4.012,14.771,12.043,14.771
		c8.181,0,12.271-4.921,12.271-14.771V171.238z"/>
	<path fill="#E6E7E8" d="M1076.143,328.486l-32.268-136.569c0.149,14.241,0.228,28.063,0.228,41.471s0,27.232,0,41.471v53.628
		h-14.998V141.47h20.679l28.632,137.024c-0.152-12.874-0.227-25.486-0.227-37.835c0-12.345,0-24.957,0-37.835V141.47h15.225v187.016
		H1076.143z"/>
	<path fill="#E6E7E8" d="M1157.04,328.486l-4.09-31.358H1125l-4.091,31.358h-16.815l25.678-187.016h20.225l24.314,187.016H1157.04z
		 M1150.904,281.22c-1.97-16.056-3.94-31.927-5.908-47.605c-1.97-15.68-3.862-31.774-5.681-48.289
		c-1.971,16.514-3.977,32.609-6.021,48.289c-2.045,15.679-4.13,31.55-6.249,47.605H1150.904z"/>
	<path fill="#E6E7E8" d="M1185.897,328.486V141.47h17.27v169.973h33.404v17.043H1185.897z"/>
	<path fill="#E6E7E8" d="M1325.415,328.486l-4.09-31.358h-27.95l-4.091,31.358h-16.815l25.678-187.016h20.225l24.314,187.016
		H1325.415z M1319.279,281.22c-1.97-16.056-3.94-31.927-5.908-47.605c-1.97-15.68-3.862-31.774-5.681-48.289
		c-1.971,16.514-3.977,32.609-6.021,48.289c-2.045,15.679-4.13,31.55-6.249,47.605H1319.279z"/>
	<path fill="#E6E7E8" d="M1400.855,328.486l-32.268-136.569c0.149,14.241,0.228,28.063,0.228,41.471s0,27.232,0,41.471v53.628
		h-14.998V141.47h20.679l28.632,137.024c-0.152-12.874-0.227-25.486-0.227-37.835c0-12.345,0-24.957,0-37.835V141.47h15.225v187.016
		H1400.855z"/>
	<path fill="#E6E7E8" d="M1434.486,328.486V141.47h29.086c9.998,0,17.419,2.84,22.27,8.521c4.847,5.681,7.271,13.521,7.271,23.519
		v123.162c0,21.212-9.85,31.813-29.541,31.813H1434.486z M1475.842,173.737c0-4.694-1.022-8.33-3.067-10.907
		c-2.045-2.574-5.113-3.863-9.203-3.863h-11.816v152.476h11.816c8.181,0,12.271-4.921,12.271-14.771V173.737z"/>
	<path fill="#E6E7E8" d="M716.431,532.544h15.68v38.631c0,10.907-2.159,18.974-6.477,24.2c-4.317,5.227-11.248,7.84-20.792,7.84
		c-19.848,0-29.768-10.527-29.768-31.586V444.376c0-21.509,9.92-32.268,29.768-32.268c18.179,0,27.269,10.605,27.269,31.813v33.177
		h-15.68V444.15c0-5-0.834-8.671-2.5-11.021c-1.669-2.347-4.697-3.522-9.089-3.522c-8.181,0-12.271,4.851-12.271,14.544v127.252
		c0,9.85,4.09,14.771,12.271,14.771c4.239,0,7.232-1.21,8.976-3.636c1.74-2.421,2.613-6.135,2.613-11.135V532.544z"/>
	<path fill="#E6E7E8" d="M745.288,443.922c0-21.208,9.771-31.813,29.313-31.813c19.691,0,29.541,10.605,29.541,31.813v127.479
		c0,21.212-9.85,31.813-29.541,31.813c-19.542,0-29.313-10.602-29.313-31.813V443.922z M786.873,443.922
		c0-9.544-4.09-14.316-12.271-14.316c-8.031,0-12.043,4.772-12.043,14.316v127.479c0,9.85,4.012,14.771,12.043,14.771
		c8.181,0,12.271-4.921,12.271-14.771V443.922z"/>
	<path fill="#E6E7E8" d="M863.451,601.17c-1.971-14.692-4.016-28.973-6.135-42.834c-2.124-13.861-4.47-27.911-7.044-42.152
		c-0.76,0.152-1.442,0.227-2.045,0.227c-0.607,0-1.289,0-2.045,0h-9.317v84.76h-17.27V414.154h28.405
		c10.907,0,19.049,2.539,24.428,7.613c5.376,5.077,8.067,13.747,8.067,26.019v37.267c0,13.634-4.623,22.802-13.861,27.496
		c3.029,15.149,5.83,30.034,8.408,44.651c2.574,14.622,5,29.278,7.271,43.971H863.451z M862.997,450.058
		c0-6.817-0.987-11.59-2.954-14.316c-1.971-2.727-5.986-4.09-12.043-4.09h-11.135v69.08h11.362c5.301,0,9.09-1.25,11.362-3.75
		c2.272-2.499,3.409-6.397,3.409-11.702V450.058z"/>
	<path fill="#E6E7E8" d="M894.808,601.17V414.154h29.086c10.907,0,18.975,2.691,24.201,8.067c5.227,5.379,7.84,13.975,7.84,25.791
		v30.678c0,11.816-2.578,20.376-7.727,25.678c-5.151,5.305-13.18,7.953-24.087,7.953h-12.044v88.85H894.808z M938.892,448.012
		c0-5.603-1.137-9.731-3.409-12.384c-2.271-2.649-6.135-3.977-11.589-3.977h-11.816v63.854h12.044c4.999,0,8.71-1.285,11.135-3.863
		c2.421-2.574,3.636-6.739,3.636-12.498V448.012z"/>
	<path fill="#E6E7E8" d="M966.613,443.922c0-21.208,9.771-31.813,29.313-31.813c19.691,0,29.541,10.605,29.541,31.813v127.479
		c0,21.212-9.85,31.813-29.541,31.813c-19.542,0-29.313-10.602-29.313-31.813V443.922z M1008.198,443.922
		c0-9.544-4.091-14.316-12.271-14.316c-8.031,0-12.043,4.772-12.043,14.316v127.479c0,9.85,4.012,14.771,12.043,14.771
		c8.181,0,12.271-4.921,12.271-14.771V443.922z"/>
	<path fill="#E6E7E8" d="M1084.776,601.17c-1.971-14.692-4.016-28.973-6.135-42.834c-2.124-13.861-4.471-27.911-7.045-42.152
		c-0.76,0.152-1.441,0.227-2.045,0.227c-0.607,0-1.289,0-2.045,0h-9.317v84.76h-17.27V414.154h28.404
		c10.907,0,19.049,2.539,24.428,7.613c5.376,5.077,8.067,13.747,8.067,26.019v37.267c0,13.634-4.623,22.802-13.861,27.496
		c3.028,15.149,5.83,30.034,8.407,44.651c2.574,14.622,5,29.278,7.271,43.971H1084.776z M1084.322,450.058
		c0-6.817-0.987-11.59-2.954-14.316c-1.971-2.727-5.986-4.09-12.044-4.09h-11.135v69.08h11.362c5.301,0,9.09-1.25,11.361-3.75
		c2.272-2.499,3.409-6.397,3.409-11.702V450.058z"/>
	<path fill="#E6E7E8" d="M1163.399,601.17l-4.091-31.358h-27.95l-4.09,31.358h-16.815l25.678-187.017h20.224l24.314,187.017
		H1163.399z M1157.263,553.905c-1.971-16.056-3.941-31.927-5.908-47.605c-1.971-15.68-3.863-31.774-5.681-48.288
		c-1.971,16.514-3.977,32.608-6.022,48.288c-2.045,15.679-4.129,31.55-6.249,47.605H1157.263z"/>
	<path fill="#E6E7E8" d="M1199.302,601.17V431.652h-20.905v-17.498h58.854v17.498h-20.906V601.17H1199.302z"/>
	<path fill="#E6E7E8" d="M1248.157,601.17V414.154h49.537v17.498h-32.268v65.671h22.724v17.271h-22.724v69.534h33.404v17.043
		H1248.157z"/>
	<path fill="#E6E7E8" d="M1342.684,601.17V414.154h29.768c9.999,0,17.117,2.5,21.36,7.499c4.239,4.999,6.363,13.18,6.363,24.542
		v37.494c0,11.667-3.789,18.559-11.362,20.679c3.636,0.76,6.817,2.691,9.544,5.794c2.727,3.107,4.091,8.067,4.091,14.885v44.538
		c0,11.06-2.5,19.088-7.499,24.087s-12.498,7.499-22.497,7.499H1342.684z M1384.042,445.967c0-5.301-0.874-9.012-2.613-11.135
		c-1.744-2.119-4.737-3.181-8.977-3.181h-12.498v66.126h12.726c4.09,0,7.005-0.983,8.749-2.954c1.739-1.968,2.613-5.148,2.613-9.544
		V445.967z M1384.723,528c0-5.302-0.796-9.125-2.387-11.476c-1.59-2.348-4.811-3.522-9.657-3.522h-12.726v71.125h12.498
		c8.181,0,12.271-4.847,12.271-14.543V528z"/>
	<path fill="#E6E7E8" d="M1460.392,601.17c-1.971-14.692-4.016-28.973-6.136-42.834c-2.123-13.861-4.47-27.911-7.044-42.152
		c-0.76,0.152-1.441,0.227-2.045,0.227c-0.607,0-1.289,0-2.046,0h-9.316v84.76h-17.27V414.154h28.404
		c10.907,0,19.049,2.539,24.428,7.613c5.376,5.077,8.067,13.747,8.067,26.019v37.267c0,13.634-4.623,22.802-13.861,27.496
		c3.028,15.149,5.83,30.034,8.407,44.651c2.574,14.622,4.999,29.278,7.271,43.971H1460.392z M1459.938,450.058
		c0-6.817-0.987-11.59-2.954-14.316c-1.971-2.727-5.986-4.09-12.044-4.09h-11.135v69.08h11.362c5.301,0,9.089-1.25,11.361-3.75
		c2.272-2.499,3.409-6.397,3.409-11.702V450.058z"/>
	<path fill="#E6E7E8" d="M1539.014,601.17l-4.09-31.358h-27.95l-4.091,31.358h-16.815l25.678-187.017h20.225l24.314,187.017
		H1539.014z M1532.879,553.905c-1.971-16.056-3.941-31.927-5.908-47.605c-1.971-15.68-3.863-31.774-5.682-48.288
		c-1.97,16.514-3.977,32.608-6.021,48.288c-2.045,15.679-4.129,31.55-6.249,47.605H1532.879z"/>
	<path fill="#E6E7E8" d="M1614.456,601.17l-32.268-136.569c0.149,14.241,0.228,28.063,0.228,41.471s0,27.232,0,41.471v53.628
		h-14.998V414.154h20.679l28.632,137.024c-0.152-12.874-0.228-25.486-0.228-37.835c0-12.346,0-24.957,0-37.835v-61.354h15.226
		V601.17H1614.456z"/>
	<path fill="#E6E7E8" d="M1648.086,601.17V414.154h29.086c9.998,0,17.419,2.841,22.27,8.521c4.847,5.682,7.271,13.521,7.271,23.52
		v123.162c0,21.212-9.85,31.813-29.541,31.813H1648.086z M1689.443,446.422c0-4.694-1.022-8.33-3.067-10.908
		c-2.045-2.574-5.113-3.862-9.203-3.862h-11.816v152.476h11.816c8.181,0,12.271-4.921,12.271-14.771V446.422z"/>
	<path fill="#E6E7E8" d="M1722.617,601.17V414.154h17.27V601.17H1722.617z"/>
	<path fill="#E6E7E8" d="M1803.739,601.17l-32.268-136.569c0.149,14.241,0.228,28.063,0.228,41.471s0,27.232,0,41.471v53.628
		h-14.998V414.154h20.679l28.632,137.024c-0.152-12.874-0.228-25.486-0.228-37.835c0-12.346,0-24.957,0-37.835v-61.354h15.226
		V601.17H1803.739z"/>
	<path fill="#E6E7E8" d="M1892.587,602.306l-5.681-10.226c-1.817,3.636-4.771,6.402-8.862,8.295c-4.09,1.892-8.713,2.84-13.861,2.84
		c-4.09,0-7.84-0.532-11.248-1.591c-3.408-1.058-6.362-2.84-8.862-5.34c-2.5-2.499-4.471-5.794-5.908-9.885
		c-1.441-4.09-2.159-9.09-2.159-14.998V444.15c0-10.453,2.422-18.406,7.272-23.86c4.846-5.454,12.271-8.181,22.269-8.181
		c9.999,0,17.231,2.727,21.701,8.181c4.467,5.454,6.704,13.407,6.704,23.86v32.949H1878.5V444.15c0-4.847-0.987-8.482-2.954-10.908
		c-1.971-2.421-5.305-3.636-9.999-3.636c-4.396,0-7.538,1.215-9.43,3.636c-1.896,2.426-2.841,6.062-2.841,10.908v127.252
		c0,4.851,1.136,8.521,3.408,11.021s5.148,3.749,8.636,3.749c8.18,0,12.646-4.466,13.406-13.406v-42.494h-14.315v-16.36h30.904
		v88.395H1892.587z"/>
	<path fill="#E6E7E8" d="M1909.173,601.17v-28.404h16.134v28.404H1909.173z"/>
</g>
</svg>
