<?xml version="1.0" encoding="utf-8"?>
<!-- Generator: Adobe Illustrator 16.0.0, SVG Export Plug-In . SVG Version: 6.00 Build 0)  -->
<!DOCTYPE svg PUBLIC "-//W3C//DTD SVG 1.1//EN" "http://www.w3.org/Graphics/SVG/1.1/DTD/svg11.dtd">
<svg version="1.1" id="Layer_1" xmlns="http://www.w3.org/2000/svg" xmlns:xlink="http://www.w3.org/1999/xlink" x="0px" y="0px"
	 width="334px" height="369px" viewBox="0 0 334 369" enable-background="new 0 0 334 369" xml:space="preserve">
<g>
	<path fill="#21384F" d="M24.635,188.388c9.54,0,14.31-5.175,14.31-15.528V96.099h7.652v91.291h7.321v-26.178
		c0-6.951,0-13.699,0-20.244s-0.038-13.293-0.111-20.244l15.75,66.666h8.431V96.099h15.458c-5.424,1.979-8.137,6.896-8.137,14.753
		v62.118c0,10.279,4.843,15.418,14.531,15.418c4.66,0,8.043-1.275,10.151-3.826c2.107-2.552,3.161-6.489,3.161-11.812v-18.858H105.5
		v18.969c0,2.44-0.427,4.253-1.276,5.435c-0.851,1.185-2.312,1.775-4.383,1.775c-3.993,0-5.989-2.402-5.989-7.21v-62.118
		c0-4.732,1.997-7.1,5.989-7.1c2.145,0,3.624,0.572,4.438,1.719c0.812,1.148,1.221,2.939,1.221,5.381v16.084h7.653V110.63
		c0-7.73-2.477-12.572-7.424-14.531h21.836c-5.318,1.959-7.98,6.801-7.98,14.531v62.229c0,10.354,4.77,15.528,14.309,15.528
		c9.612,0,14.421-5.175,14.421-15.528V110.63c0-7.73-2.684-12.572-8.043-14.531h15.364v91.291h7.764v-27.619
		c0-6.73-0.018-13.312-0.054-19.746c-0.039-6.434-0.094-13.015-0.167-19.744l9.761,67.109h7.432l9.873-67.109
		c-0.074,6.729-0.131,13.311-0.166,19.744c-0.037,6.435-0.055,13.016-0.055,19.746v27.619h7.875V96.099h7.764v91.291h7.766v-27.619
		c0-6.73-0.02-13.312-0.057-19.746c-0.039-6.434-0.094-13.015-0.166-19.744l9.762,67.109h7.432l9.873-67.109
		c-0.076,6.729-0.131,13.311-0.168,19.744c-0.037,6.435-0.055,13.016-0.055,19.746v27.619h7.877V96.099h15.299
		c-5.318,1.959-7.98,6.801-7.98,14.531v62.229c0,10.354,4.77,15.528,14.311,15.528c9.611,0,14.42-5.175,14.42-15.528V110.63
		c0-7.73-2.684-12.572-8.043-14.531h15.363v91.291h7.32v-26.178c0-6.951,0-13.699,0-20.244s-0.039-13.293-0.111-20.244
		l15.752,66.666h8.432V96.099v-0.002v-88.9H10.326v88.9v0.002v76.761C10.326,183.213,15.096,188.388,24.635,188.388z
		 M139.885,172.859c0,4.808-1.998,7.21-5.991,7.21c-3.921,0-5.878-2.402-5.878-7.21V110.63c0-4.659,1.957-6.988,5.878-6.988
		c3.993,0,5.991,2.329,5.991,6.988V172.859z M275.543,172.859c0,4.808-1.996,7.21-5.988,7.21c-3.922,0-5.879-2.402-5.879-7.21
		V110.63c0-4.659,1.957-6.988,5.879-6.988c3.992,0,5.988,2.329,5.988,6.988V172.859z M70.668,162.985L56.692,96.099h13.865v29.949
		c0,6.287,0,12.443,0,18.47C70.557,150.545,70.594,156.702,70.668,162.985z M176.602,167.423l-9.652-71.324h19.3L176.602,167.423z
		 M226.627,167.423l-9.65-71.324h19.301L226.627,167.423z M315.365,162.985l-13.977-66.887h13.865v29.949c0,6.287,0,12.443,0,18.47
		C315.254,150.545,315.291,156.702,315.365,162.985z M30.513,96.099v76.761c0,4.808-1.959,7.21-5.878,7.21
		c-3.92,0-5.878-2.402-5.878-7.21V96.099H30.513z"/>
	<path fill="#21384F" d="M308.121,266.836v-28.823h10.58v-7.16h-10.58V203.63h15.023v-7.252h-23.066v76.523h-7.09v-35.172h-14.391
		v6.781h6.666v17.615c-0.354,3.705-2.432,5.557-6.242,5.557c-1.623,0-2.961-0.518-4.021-1.553c-1.059-1.036-1.586-2.559-1.586-4.568
		v-52.75c0-2.01,0.441-3.516,1.322-4.521c0.881-1.004,2.344-1.506,4.391-1.506c2.186,0,3.738,0.502,4.656,1.506
		c0.916,1.006,1.375,2.512,1.375,4.521v13.658h7.195v-13.658c0-4.334-1.041-7.63-3.121-9.891c-2.082-2.261-5.449-3.39-10.105-3.39
		s-8.113,1.129-10.369,3.39c-2.258,2.261-3.387,5.557-3.387,9.891v52.75c0,2.449,0.334,4.521,1.006,6.217
		c0.67,1.694,1.588,3.06,2.752,4.098c0.436,0.389,0.912,0.721,1.408,1.025h-18.994c4.836-1.748,7.27-5.802,7.27-12.188v-51.054
		c0-4.144-1.129-7.395-3.387-9.749s-5.713-3.532-10.369-3.532h-13.545v76.523h-6.029v-6.065h-15.555v-28.823h10.58v-7.16h-10.58
		V203.63h15.023v-7.252h-23.066v76.523h-4.973v-6.065h-15.555v-70.458h-8.043v76.523H157.27l10.864-76.523h-8.465
		c-0.424,3.203-0.884,6.751-1.376,10.643c-0.494,3.895-1.005,7.898-1.535,12.012c-0.529,4.113-1.023,8.18-1.481,12.197
		c-0.46,4.021-0.899,7.741-1.323,11.162c-0.422,3.424-0.793,6.453-1.11,9.09c-0.318,2.638-0.549,4.586-0.688,5.84l-6.561-60.943
		h-8.042c-0.423,3.203-0.884,6.751-1.376,10.643c-0.494,3.895-1.005,7.898-1.534,12.012c-0.53,4.113-1.024,8.18-1.481,12.197
		c-0.461,4.021-0.9,7.741-1.323,11.162c-0.423,3.424-0.794,6.453-1.111,9.09c-0.318,2.638-0.548,4.586-0.688,5.84
		c-0.143-1.254-0.354-3.202-0.636-5.84c-0.281-2.637-0.6-5.666-0.951-9.09c-0.354-3.421-0.724-7.141-1.11-11.162
		c-0.39-4.018-0.812-8.084-1.271-12.197c-0.461-4.113-0.918-8.117-1.375-12.012c-0.46-3.892-0.9-7.439-1.324-10.643h-8.359
		l9.61,76.523h-18.489c3.591-2.059,5.388-5.837,5.388-11.34v-52.844c0-8.792-4.587-13.187-13.756-13.187
		c-9.101,0-13.651,4.395-13.651,13.187v52.844c0,5.503,1.782,9.281,5.346,11.34h-12.33v-76.523h-7.09v25.432
		c0,5.339,0,10.566,0,15.685s0.036,10.347,0.107,15.685l-13.334-56.801h-9.628v76.523h-4.648L25.389,231.7l16.507-35.322h-8.677
		l-14.708,33.44v-33.44h-8.042v76.523v1v87.902h313.205v-87.902v-1v-6.065H308.121z M239.555,203.63h5.502
		c1.904,0,3.332,0.535,4.285,1.604c0.951,1.067,1.428,2.574,1.428,4.521v50.959c0,4.083-1.904,6.123-5.713,6.123h-5.502V203.63z
		 M92.158,208.718c0-3.957,1.868-5.934,5.608-5.934c3.808,0,5.714,1.977,5.714,5.934v52.844c0,4.082-1.906,6.121-5.714,6.121
		c-3.74,0-5.608-2.039-5.608-6.121V208.718z M289.074,270.134l1.727,2.768h-4.506C287.516,272.179,288.443,271.257,289.074,270.134z
		 M135.913,264.341c0.458-3.611,0.933-7.365,1.428-11.258c0.492-3.894,0.953-7.787,1.375-11.68c0.423-3.894,0.81-7.504,1.164-10.832
		c0.353-3.328,0.651-6.232,0.9-8.714c0.247-2.479,0.405-4.286,0.476-5.415c0.069,1.129,0.228,2.936,0.477,5.415
		c0.246,2.481,0.529,5.386,0.845,8.714c0.319,3.328,0.688,6.938,1.111,10.832c0.423,3.893,0.846,7.786,1.271,11.68
		c0.423,3.893,0.846,7.646,1.27,11.258c0.375,3.191,0.718,6.032,1.038,8.561h-12.528
		C135.116,270.373,135.506,267.532,135.913,264.341z M54.065,217.289l14.76,55.612H54.171V251.67c0-5.901,0-11.633,0-17.19
		C54.171,228.921,54.135,223.192,54.065,217.289z M18.511,235.751l14.838,37.15H18.511V235.751z"/>
</g>
</svg>
